<?xml version="1.0" encoding="UTF-8"?>
<!-- Created with Inkscape (http://www.inkscape.org/) -->
<svg width="108.35mm" height="256.49mm" version="1.1" viewBox="0 0 108.35 256.49" xmlns="http://www.w3.org/2000/svg">
 <g transform="translate(-179.72 128.52)">
  <path d="m179.72-0.27802v128.24h32.384c11.771 0 21.245-0.80403 28.422-2.4117 7.2347-1.6077 13.78-4.2204 19.637-7.8378 8.4405-5.2251 15.187-12.574 20.24-22.048 5.1102-9.474 7.6657-20.039 7.6657-31.695 0-12.46-2.4405-23.226-7.321-32.298-4.8806-9.0721-11.685-16.336-20.412-21.79-5.1102-3.158-11.369-5.6268-18.776-7.4068-7.3495-1.8374-17.283-2.7559-29.8-2.7559h-16.241zm53.485 16.364c5.6844 1.0909 11.053 3.0719 16.106 5.9428 6.9476 3.9619 12.172 9.3879 15.675 16.278 3.5025 6.8902 5.2539 15.36 5.2539 25.408 0 9.9908-1.6081 18.317-4.8235 24.977-3.158 6.6605-7.9234 12.029-14.297 16.105-5.1102 3.2728-10.737 5.5121-16.881 6.7179l-0.20722-19.153h-0.062l-4.2333-7.1541v7.1541h-9.017v-28.236h9.7369c1.148 0 2.2387 0.09765 3.2727 0.29146zm0.52348 48.331 0.0408 3.7781c0.8927 0.30542 1.68 0.72599 2.359 1.2645 0.84666 0.62089 1.5103 1.3967 1.99 2.328 0.47978 0.93133 0.71934 2.018 0.71934 3.2597 0 1.778-0.45133 3.2316-1.3544 4.3605-0.88803 1.0823-2.0778 1.8902-3.5662 2.4267l2e-3 0.15606 4.1574 6.9846h-1.3126l-2.8205-4.7506 0.0884 8.137h10.521l-5.2917-9.3131c0.70555-0.508 1.3409-1.1286 1.9053-1.8624 0.47978-0.64911 0.91695-1.4679 1.3121-2.4557s0.59273-2.1871 0.59273-3.5982c0-1.778-0.32447-3.3443-0.97358-4.6989-0.62089-1.3829-1.4958-2.5403-2.6246-3.4716-1.1289-0.93133-2.4692-1.6369-4.0215-2.1167-0.55539-0.17484-1.13-0.31675-1.7229-0.42788zm0.21446 19.808-0.0243-2.234-0.076-0.12764c0.0255-0.0089 0.0491-0.01931 0.0744-0.02842l-0.0114-1.0449c-1.2102 0.48891-2.6694 0.73484-4.3811 0.73484h-3.4716v-12.997h3.4716c1.653 0 3.0707 0.23511 4.2561 0.7028l-0.0114-1.0356c-0.1833-0.06271-0.36942-0.1223-0.56172-0.17518-1.1289-0.33866-2.3565-0.50798-3.683-0.50798h-4.5723v21.463h1.1007v-6.4348h3.4716c1.1007 0 2.1732-0.1127 3.2174-0.33848zm-0.16227-14.994 0.047 4.3481c0.14796 0.37141 0.22634 0.8017 0.22634 1.2991 0 0.46659-0.0688 0.87471-0.19895 1.2304l0.0506 4.6814c0.60562-0.24466 1.1498-0.54913 1.6299-0.91622 1.4676-1.1289 2.2014-2.7376 2.2014-4.8261 0-2.0884-0.73386-3.6972-2.2014-4.8261-0.5129-0.40228-1.0987-0.73171-1.7549-0.99064zm0.0744 6.8776-0.0274-2.5296c-0.18782-0.47145-0.49052-0.84526-0.91674-1.1136-0.73378-0.47978-1.6364-0.71985-2.7089-0.71985h-0.46612v6.2658h0.46612c1.0724 0 1.9751-0.24008 2.7089-0.71985 0.44705-0.28147 0.75935-0.67798 0.94413-1.1829zm-52.244-11.983h9.5669v28.236h-9.5669zm20.95 0h6.7732l10.71 28.236h-8.8904l-0.93121-2.5399h-8.5514l-0.93121 2.5399h-8.8899zm40.553 0 8.7628 16.086v12.15h9.017v-12.15l8.7633-16.086h-10.033l-3.2174 5.9691-3.2598-5.9691zm-57.269 3.3864v21.463h1.1002v-21.463zm19.299 0-8.1706 21.463h1.1855l0.80408-2.1167h13.97l0.8046 2.1167h1.1849l-8.17-21.463zm44.532 0h1.2702l5.4612 10.033 5.4183-10.033h1.3126l-6.1805 11.346v10.118h-1.1431v-10.118zm-43.728 1.016 6.6042 17.315h-13.208zm0 10.118-1.9048 4.9532h3.8101zm-26.227-207.17h32.039c12.517 0 22.451 0.91869 29.8 2.7561 7.407 1.78 13.666 4.249 18.776 7.407 8.7276 5.4547 15.532 12.718 20.412 21.79 4.8806 9.0721 7.3208 19.838 7.3208 32.298 0 11.656-2.5551 22.221-7.6654 31.695-5.0528 9.474-11.799 16.824-20.24 22.049-5.8567 3.6173-12.402 6.2299-19.637 7.8376-7.1773 1.6077-16.651 2.4116-28.422 2.4116h-32.384v-13.134zm54.519 111.79c6.1438-1.2058 11.771-3.4451 16.881-6.7179 6.3734-4.0767 11.139-9.4453 14.297-16.106 3.2154-6.6605 4.8231-14.986 4.8231-24.977 0-10.048-1.7512-18.517-5.2538-25.408-3.5025-6.8902-8.7276-12.316-15.675-16.278-5.0528-2.8709-10.421-4.8518-16.106-5.9428" fill="#fff" stroke-width=".26458"/>
 </g>
</svg>
