<?xml version="1.0" encoding="UTF-8"?>
<!-- Created with Inkscape (http://www.inkscape.org/) -->
<svg width="66.379mm" height="42.571mm" version="1.1" viewBox="0 0 66.379 42.571" xmlns="http://www.w3.org/2000/svg">
 <g transform="translate(-81.503 -53.921)" fill="#fff" stroke-width=".26458">
  <g aria-label="B">
   <path transform="scale(.26458)" d="m308.04 203.8c1.152 9.216 1.5352 17.472 1.5352 27.648v105.03c0 13.44-0.38315 19.967-1.5352 28.223 8.256-0.384 13.824-0.57617 28.416-0.57617h52.225c20.53 0 35.836-6.1646 44.588-17.332-3.0334-0.46557-5.4514-1.5412-7.3008-3.252-2.304-2.112-3.5195-5.1831-3.5195-8.7031 0-4.032 1.5999-7.2318 4.6719-9.3438 3.264-2.304 7.5506-3.6482 13.311-4.1602 0.4203-0.0431 0.8253-0.0798 1.2285-0.11328 6e-3 -0.35284 0.0137-0.70588 0.0137-1.0625 0-1.7464-0.0901-3.4447-0.25-5.1016-2.8578 0.39496-4.485 1.7628-5.2793 4.3574l-12.225-1.9844c1.28-3.776 2.689-5.8242 5.377-7.7442 2.6708-1.8794 6.1063-3.032 10.395-3.459-2.003-6.4746-5.514-12-10.498-16.404-5.568-4.8-10.561-7.1048-19.969-9.2168 7.872-2.88 11.329-4.7993 15.553-8.4473 7.296-6.528 11.137-15.745 11.137-27.457 0-25.344-18.242-40.32-49.346-40.32h-50.303c-15.744 0-18.433-1.8e-4 -28.225-0.57617zm131.65 102.42c0.85768 2.7724 1.4324 5.7223 1.7324 8.8301 0.59627-0.0824 1.246-0.12305 1.9531-0.12305 4.224 0 6.0801 1.4085 6.0801 4.4805v1.4707c-3.8321 0.10646-5.8055 0.17079-7.7969 0.33594-0.055 2.9808-0.34078 5.8256-0.85157 8.5293 2.0769-0.39391 4.6294-0.58156 8.6484-0.67188v1.791c0 1.92-0.83267 3.6477-2.3047 4.9277-1.728 1.472-4.6084 2.4336-7.2324 2.4336-0.57125 0-1.1002-0.0419-1.5859-0.11914-1.3149 3.1598-3.0089 6.0589-5.0644 8.6816 1.1654 0.17887 2.4214 0.26953 3.7715 0.26953 5.248 0 8.832-1.0898 12.416-3.8418v2.9453h12.416c-0.32013-2.88-0.44922-5.1839-0.44922-9.0879v-17.281c0-5.76-1.7907-9.2795-5.8867-11.52-2.496-1.344-7.1058-2.2402-11.842-2.2402-1.4105 0-2.7431 0.0639-4.0039 0.18945zm-1.3574 31.885c1.0869-2.6119 1.9154-5.4013 2.4746-8.3613-0.86655 0.16435-1.6513 0.36248-2.4238 0.60742-2.304 0.768-3.7129 2.3686-3.7129 4.2246 0 1.9085 1.3183 3.1565 3.6621 3.5293zm-91.125-102.24h33.408c10.944 0 16.896 5.3772 16.896 14.785s-6.3357 15.359-16.512 15.359h-33.793zm56.65 57.049h12.992v9.5996h-12.992zm-56.65 3.8164h35.137c12.288 0 19.584 6.5281 19.584 17.664 0 11.328-7.2966 18.047-19.393 18.047h-35.328zm56.459 10.391h13.375c-0.38389 2.624-0.51172 5.1841-0.51172 9.6641v19.713c0 3.456 0.19159 6.9121 0.51172 9.6641h-13.375c0.38399-3.136 0.51172-5.5681 0.51172-9.6641v-19.713c0-4.16-0.12772-6.7841-0.51172-9.6641z" fill="#fff" stroke-width="1"/>
  </g>
  <g transform="translate(9.3398 2.6685)" aria-label="iary.">
   <path d="m123.09 78.59c-0.79586-0.16933-1.1345-0.2032-1.6764-0.2032-1.5409 0-2.5569 0.4572-3.3867 1.5409v-1.3377h-3.3697c0.1016 0.72813 0.13547 1.3208 0.13547 2.5569v5.2155c0 1.1007-0.0339 1.7103-0.13547 2.5569h3.5052c-0.1016-0.8128-0.13546-1.4563-0.13546-2.54v-2.6416c0.0677-0.74506 0.18626-1.1007 0.508-1.5071 0.49106-0.6096 1.1515-0.9144 2.0151-0.9144 0.52493 0 0.94826 0.08467 1.7272 0.32173z"/>
   <path d="m127.52 88.005-0.3556 0.72813c-0.254 0.508-0.72813 0.79586-1.3716 0.79586-0.44026 0-0.762-0.08467-1.3208-0.37253l-0.37253 2.6924c0.93133 0.2032 1.5748 0.28787 2.3199 0.28787 1.9304 0 3.1496-0.72813 3.8269-2.3199l3.8777-8.9577c0.59266-1.3885 0.59266-1.3885 1.016-2.2691h-3.6745c-0.1016 0.59266-0.254 1.0837-0.72813 2.2521l-1.5071 3.8439-1.5579-3.9116c-0.3556-0.9144-0.57573-1.6425-0.6604-2.1844h-3.6745c0.22014 0.42333 0.28787 0.57573 1.016 2.2691z"/>
   <path d="m135.12 85.499v3.4205h3.4205v-3.4205z"/>
  </g>
 </g>
</svg>
